<?xml version="1.0" encoding="UTF-8"?><svg id="a" xmlns="http://www.w3.org/2000/svg" viewBox="0 0 338.04 65.85"><g id="b"><g id="c"><path id="d" d="M199.96,23.32h-27.47V1.5h-29.33v62.86h29.33v-24.92h27.47v24.92h29.32V1.5h-29.32V23.32Zm-101.16,41.03h29.33V1.49h-29.33v62.86ZM289.78,0c-28.92,0-48.26,13.73-48.26,32.92s19.33,32.93,48.26,32.93,48.26-13.74,48.26-32.93c0-19.19-19.33-32.92-48.26-32.92h0Zm0,50.18c-7.46,0-18.93-3.26-18.93-17.26s11.47-17.26,18.93-17.26,18.94,3.26,18.94,17.26c0,14-11.47,17.26-18.94,17.26h0Zm-217.13-14.97c9.73-2.37,14.27-9.24,14.27-15.75,0-11.89-14.4-17.96-31.06-17.96H0v62.86H29.33v-21.92h15.6c11.6,0,12.4,6.25,13.2,12.23,.4,3.26,.94,6.52,2.4,9.69h29.33c-2.66-2.91-2.8-10.39-3.2-13.47-1.06-7.83-6-13.64-14-15.67h0Zm-28-6.25h-15.33v-12.5h13.73c11.2,0,14.53,2.29,14.53,6.25,0,5.64-7.46,6.25-12.94,6.25h0Z"/></g></g></svg>