<svg xmlns="http://www.w3.org/2000/svg" viewBox="0 0 621.981 100"><defs><style>.cls-1{fill:#0076bd;}</style></defs><g id="Ebene_2" data-name="Ebene 2"><g id="Ebene_1-2" data-name="Ebene 1"><path class="cls-1" d="M14.818,47.864C30.3,23.515,58.161.1,78.56.1c14.533,0,15.155,17.678,5.888,38.274C103.947,15.63,125.97-.109,141.636,0,153.01.073,161.18,13.985,145.374,43.1L14.4,48.485Z"/><path class="cls-1" d="M136.465,57.293C120.556,79.776,94.826,100.007,76.533,100c-15.206-.015-16.471-17.693-5.259-39.5-16.9,20.523-39.6,38.961-58.256,38.961-18.03,0-16.728-22.922.175-48.916Z"/><path d="M452.753,78.978c-4.908,3.073-8.477,5.055-14.27,5.055-12.58,0-24-8.36-24.231-28.694-.191-16.047,9.1-28.115,22.8-28.459,7.262-.182,10.6,1,15.593,5.135a50.133,50.133,0,0,0,3.738-9.962c-4.791-3.416-13.122-6.041-20.5-6.041-24.364,0-42.006,15.081-42.006,41.609,0,19.3,17.225,37.617,41.779,37.617a35.242,35.242,0,0,0,17.1-3.877Z"/><path d="M544.862,93.172c1.455-.109,18.731-.109,20.179,0V28.933h9.684c10.137,0,10.986,22.351,24.671,63.961,3.766-.066,22.585.037,22.585.037C605.547,38.851,603,29.942,596.952,23.725c-3.92-4.037-9.545-5.91-17.707-5.91H544.862Z"/><path d="M344.16,28.722l7.015-.015c9.6-.014,14.489,8.434,14.489,17.174,0,10.408-3.058,19.777-12.441,20.1-2.436.08-6.605-.11-9.063,0Zm0,47.863c14.043,0,19.712-.314,26.448-3.649a26.968,26.968,0,0,0,15.33-24.356c0-18.849-13-30.463-31.07-30.463H323.63v74.9h20.53Z"/><path d="M211.329,29.005l23.295-.014s-.219-9.391,0-10.92h-68.1c.226,1.529,0,10.92,0,10.92l24.538.014V92.733c2.8-.219,17.474-.219,20.268,0Z"/><path d="M293.244,54.658c0,15.557-5.749,29.373-19.214,29.373-11.044,0-19.294-13.246-19.294-28.8s7.5-28.437,19.411-28.437c11.052,0,19.1,12.3,19.1,27.867m20.926.665c0-21.715-17.8-39.2-40.023-39.2S233.9,33.725,233.9,55.441s18.022,39.32,40.249,39.32S314.17,77.039,314.17,55.323"/><path d="M515.5,54.658c0,15.557-5.749,29.373-19.214,29.373-11.045,0-19.3-13.246-19.3-28.8s7.5-28.437,19.412-28.437c11.051,0,19.1,12.3,19.1,27.867m20.926.665c0-21.715-17.8-39.2-40.023-39.2s-40.25,17.6-40.25,39.314,18.022,39.32,40.25,39.32,40.023-17.722,40.023-39.438"/></g></g></svg>